<svg xmlns="http://www.w3.org/2000/svg" viewBox="0 0 40 40" width="40" height="40">
  <!-- Outer border -->
  <rect x="1" y="1" width="38" height="38" fill="none" stroke="#1B2E5A" stroke-width="2.5"/>
  <!-- Inner border -->
  <rect x="4" y="4" width="32" height="32" fill="none" stroke="#1B2E5A" stroke-width="1"/>
  <!-- Block R letter -->
  <path d="M12 8 L12 32 L16.5 32 L16.5 23 L19 23 L24 32 L29 32 L23.5 22.5
           Q27 21 27 16.5 Q27 12 24 10 Q21.5 8 18 8 Z
           M16.5 11.5 L18.5 11.5 Q21.5 11.5 23 13 Q24 14 24 16.5
           Q24 18.5 23 19.5 Q21.5 20.5 18.5 20.5 L16.5 20.5 Z"
        fill="#1B2E5A" fill-rule="evenodd"/>
  <!-- Registered trademark symbol -->
  <circle cx="31" cy="10" r="2.5" fill="none" stroke="#1B2E5A" stroke-width="0.6"/>
  <text x="31" y="11.8" text-anchor="middle" font-family="Arial, sans-serif" font-size="4" fill="#1B2E5A" font-weight="700">R</text>
</svg>
